<svg width="23" height="20" viewBox="0 0 23 20" fill="none" xmlns="http://www.w3.org/2000/svg">
<path d="M13.396 10L22.9307 0.401841C23.0905 0.242331 22.9561 0 22.7091 0H19.8106C19.6399 0 19.4764 0.0644171 19.3638 0.174847L11.5 8.09202L3.63618 0.174847C3.52721 0.0644171 3.36376 0 3.18941 0H0.290871C0.0438782 0 -0.0905154 0.242331 0.0693037 0.401841L9.60397 10L0.0693037 19.5982C0.0335028 19.6337 0.0105351 19.6772 0.00312665 19.7234C-0.00428182 19.7697 0.00418011 19.8168 0.0275087 19.8591C0.0508372 19.9014 0.0880525 19.9372 0.134735 19.9621C0.181418 19.9871 0.235608 20.0003 0.290871 20H3.18941C3.36012 20 3.52358 19.9356 3.63618 19.8251L11.5 11.908L19.3638 19.8251C19.4728 19.9356 19.6362 20 19.8106 20H22.7091C22.9561 20 23.0905 19.7577 22.9307 19.5982L13.396 10Z" fill="#595959"/>
</svg>
