<svg width="36" height="37" viewBox="0 0 36 37" fill="none" xmlns="http://www.w3.org/2000/svg">
<path d="M22.4411 36.9238H5.55892C4.61537 36.9228 3.71076 36.5703 3.04356 35.9437C2.37637 35.317 2.00107 34.4674 2 33.5812V9.12876C2.00107 8.24255 2.37637 7.39292 3.04356 6.76627C3.71076 6.13963 4.61537 5.78714 5.55892 5.78613H22.4411C23.3846 5.78714 24.2892 6.13963 24.9564 6.76627C25.6236 7.39292 25.9989 8.24255 26 9.12876V33.5812C25.9989 34.4674 25.6236 35.317 24.9564 35.9437C24.2892 36.5703 23.3846 36.9228 22.4411 36.9238Z" fill="white"/>
<path d="M20.5331 34.2549H7.46694C6.54777 34.2539 5.66655 33.9128 5.0166 33.3064C4.36665 32.7001 4.00104 31.8779 4 31.0204V11.6896C4.00104 10.8321 4.36665 10.0099 5.0166 9.40352C5.66655 8.79714 6.54777 8.45605 7.46694 8.45508H20.5331C21.4522 8.45605 22.3335 8.79714 22.9834 9.40352C23.6334 10.0099 23.999 10.8321 24 11.6896V31.0204C23.999 31.8779 23.6334 32.7001 22.9834 33.3064C22.3335 33.9128 21.4522 34.2539 20.5331 34.2549Z" fill="#FDD71F"/>
<path d="M26 27.1377H2V31.5859H26V27.1377Z" fill="#3F3D56"/>
<path d="M22.4411 36.9238H5.55892C4.61537 36.9228 3.71076 36.5703 3.04356 35.9437C2.37637 35.317 2.00107 34.4674 2 33.5812V9.12876C2.00107 8.24255 2.37637 7.39292 3.04356 6.76627C3.71076 6.13963 4.61537 5.78714 5.55892 5.78613H22.4411C23.3846 5.78714 24.2892 6.13963 24.9564 6.76627C25.6236 7.39292 25.9989 8.24255 26 9.12876V33.5812C25.9989 34.4674 25.6236 35.317 24.9564 35.9437C24.2892 36.5703 23.3846 36.9228 22.4411 36.9238ZM5.55892 5.97716C4.66929 5.9781 3.81638 6.31045 3.18731 6.90129C2.55824 7.49212 2.20439 8.2932 2.20339 9.12876V33.5812C2.20439 34.4168 2.55824 35.2178 3.18731 35.8087C3.81638 36.3995 4.66929 36.7319 5.55892 36.7328H22.4411C23.3307 36.7319 24.1836 36.3995 24.8127 35.8087C25.4418 35.2178 25.7956 34.4168 25.7966 33.5812V9.12876C25.7956 8.2932 25.4418 7.49212 24.8127 6.90129C24.1836 6.31045 23.3307 5.9781 22.4411 5.97716H5.55892Z" fill="#3F3D56"/>
<path d="M23.2143 5.40486C23.1603 5.40486 23.1067 5.40657 23.0535 5.40926C23.2379 4.94743 23.2643 4.44732 23.1294 3.97213C22.9944 3.49695 22.7042 3.06802 22.2953 2.73954C21.8864 2.41107 21.3773 2.1978 20.8322 2.12668C20.2871 2.05556 19.7306 2.12979 19.2329 2.33999C18.7864 1.22182 17.8266 0.448242 16.7143 0.448242C15.6019 0.448242 14.6422 1.22182 14.1957 2.33999C13.822 2.18227 13.4136 2.10045 13 2.10045C12.5864 2.10045 12.178 2.18227 11.8043 2.33999C11.3578 1.22182 10.3981 0.448242 9.28571 0.448242C8.17336 0.448242 7.21361 1.22182 6.7671 2.33999C6.26929 2.12973 5.71257 2.05551 5.16735 2.12672C4.62213 2.19794 4.11288 2.41138 3.70401 2.74007C3.29513 3.06875 3.00499 3.49792 2.87027 3.9733C2.73554 4.44868 2.76229 4.94893 2.94713 5.41078C2.89367 5.40716 2.83992 5.40485 2.78571 5.40485C1.24721 5.40485 0 6.88429 0 8.70926C0 10.5342 1.24721 12.0137 2.78571 12.0137C4.05283 12.0137 5.1216 11.0098 5.45954 9.63621C5.8663 9.9977 6.38878 10.2384 6.95535 10.3254C7.52192 10.4123 8.10485 10.3413 8.62425 10.1219C9.07075 11.2401 10.0305 12.0137 11.1429 12.0137C12.41 12.0137 13.4787 11.0098 13.8167 9.63621C14.2234 9.9977 14.7459 10.2384 15.3125 10.3254C15.8791 10.4123 16.462 10.3413 16.9814 10.1219C17.4279 11.2401 18.3876 12.0137 19.5 12.0137C20.6123 12.0137 21.5721 11.2401 22.0186 10.1219C22.3961 10.2815 22.809 10.3634 23.2269 10.3617C23.6448 10.36 24.0569 10.2747 24.4327 10.1121C24.8085 9.94943 25.1384 9.71368 25.3979 9.42225C25.6574 9.13082 25.8398 8.79119 25.9318 8.42851C26.0237 8.06584 26.0227 7.68941 25.9289 7.32711C25.8352 6.96481 25.651 6.62592 25.39 6.33555C25.129 6.04517 24.798 5.81075 24.4213 5.64964C24.0447 5.48854 23.6322 5.40488 23.2143 5.40486Z" fill="#F0F0F0"/>
<path d="M12 20.9102C12.5523 20.9102 13 20.5118 13 20.0205C13 19.5292 12.5523 19.1309 12 19.1309C11.4477 19.1309 11 19.5292 11 20.0205C11 20.5118 11.4477 20.9102 12 20.9102Z" fill="white"/>
<path d="M15 15.5723C15.5523 15.5723 16 15.3731 16 15.1274C16 14.8818 15.5523 14.6826 15 14.6826C14.4477 14.6826 14 14.8818 14 15.1274C14 15.3731 14.4477 15.5723 15 15.5723Z" fill="white"/>
<path d="M11.5 16.4619C11.7761 16.4619 12 16.2628 12 16.0171C12 15.7714 11.7761 15.5723 11.5 15.5723C11.2239 15.5723 11 15.7714 11 16.0171C11 16.2628 11.2239 16.4619 11.5 16.4619Z" fill="white"/>
<path d="M17.5 21.7998C17.7761 21.7998 18 21.6007 18 21.355C18 21.1093 17.7761 20.9102 17.5 20.9102C17.2239 20.9102 17 21.1093 17 21.355C17 21.6007 17.2239 21.7998 17.5 21.7998Z" fill="white"/>
<path d="M26 28.917V28.7302C28.5965 28.7302 31.0866 27.8126 32.9226 26.1792C34.7586 24.5458 35.7901 22.3305 35.7901 20.0205C35.7901 17.7105 34.7586 15.4952 32.9226 13.8618C31.0866 12.2284 28.5965 11.3108 26 11.3108V11.124C28.6522 11.124 31.1957 12.0613 33.0711 13.7297C34.9464 15.3982 36 17.661 36 20.0205C36 22.38 34.9464 24.6429 33.0711 26.3113C31.1957 27.9797 28.6522 28.917 26 28.917Z" fill="#3F3D56"/>
<path d="M26.1074 27.1377H26V26.9087H26.2148V26.9554C28.2416 26.9315 30.175 26.2309 31.5932 25.0066C33.0113 23.7823 33.7993 22.1335 33.7851 20.4199C33.7709 18.7064 32.9558 17.0671 31.5175 15.8596C30.0792 14.6522 28.1344 13.9746 26.1074 13.9746V13.793C28.2007 13.793 30.2082 14.4959 31.6883 15.7473C33.1685 16.9986 34 18.6957 34 20.4653C34 22.2349 33.1685 23.9321 31.6883 25.1834C30.2082 26.4347 28.2007 27.1377 26.1074 27.1377Z" fill="#3F3D56"/>
</svg>
