<svg width="32" height="16" viewBox="0 0 32 16" fill="none" xmlns="http://www.w3.org/2000/svg">
<path d="M31.68 0H0.32C0.144 0 0 0.0818182 0 0.181818V1.63636C0 1.73636 0.144 1.81818 0.32 1.81818H31.68C31.856 1.81818 32 1.73636 32 1.63636V0.181818C32 0.0818182 31.856 0 31.68 0ZM31.68 14.1818H0.32C0.144 14.1818 0 14.2636 0 14.3636V15.8182C0 15.9182 0.144 16 0.32 16H31.68C31.856 16 32 15.9182 32 15.8182V14.3636C32 14.2636 31.856 14.1818 31.68 14.1818ZM31.68 7.09091H0.32C0.144 7.09091 0 7.17273 0 7.27273V8.72727C0 8.82727 0.144 8.90909 0.32 8.90909H31.68C31.856 8.90909 32 8.82727 32 8.72727V7.27273C32 7.17273 31.856 7.09091 31.68 7.09091Z" fill="#595959"/>
</svg>
